<?xml version="1.0" standalone="no"?><!DOCTYPE svg PUBLIC "-//W3C//DTD SVG 1.1//EN" "http://www.w3.org/Graphics/SVG/1.1/DTD/svg11.dtd"><svg t="1723700302380" class="icon" viewBox="0 0 1024 1024" version="1.1" xmlns="http://www.w3.org/2000/svg" p-id="5140" xmlns:xlink="http://www.w3.org/1999/xlink" width="200" height="200"><path d="M153.6 102.4a51.2 51.2 0 0 0-51.2 51.2v544a51.2 51.2 0 0 0 51.2 51.2h99.214222a51.2 51.2 0 0 1 51.2 51.2v89.969778l271.473778-135.736889c7.111111-3.555556 14.933333-5.404444 22.897778-5.432889H870.4a51.2 51.2 0 0 0 51.2-51.2V512a51.2 51.2 0 1 1 102.4 0v185.6a153.6 153.6 0 0 1-153.6 153.6h-259.896889L275.655111 1018.624a51.2 51.2 0 0 1-74.040889-45.795556v-121.628444H153.6a153.6 153.6 0 0 1-153.6-153.6V153.6A153.6 153.6 0 0 1 153.6 0h300.8a51.2 51.2 0 0 1 0 102.4H153.6zM771.214222 0a51.2 51.2 0 0 1 51.2 51.2v121.6h121.6a51.2 51.2 0 0 1 0 102.4h-121.6v121.6a51.2 51.2 0 1 1-102.4 0V275.2h-121.6a51.2 51.2 0 0 1 0-102.4h121.571556V51.2a51.2 51.2 0 0 1 51.2-51.2h0.028444z" fill="#000000" p-id="5141"></path></svg>