<?xml version="1.0" standalone="no"?><!DOCTYPE svg PUBLIC "-//W3C//DTD SVG 1.1//EN" "http://www.w3.org/Graphics/SVG/1.1/DTD/svg11.dtd"><svg t="1723701373447" class="icon" viewBox="0 0 1024 1024" version="1.1" xmlns="http://www.w3.org/2000/svg" p-id="5573" xmlns:xlink="http://www.w3.org/1999/xlink" width="200" height="200"><path d="M153.599886 102.399924a51.199962 51.199962 0 0 0-51.199962 51.199962v543.999596a51.199962 51.199962 0 0 0 51.199962 51.199962h99.213926a51.199962 51.199962 0 0 1 51.199962 51.199962v89.969933l271.473799-135.736899a51.552962 51.552962 0 0 1 22.897983-5.432996H870.399354a51.199962 51.199962 0 0 0 51.199962-51.199962V511.99962a51.199962 51.199962 0 1 1 102.399924 0v185.599862a153.599886 153.599886 0 0 1-153.599886 153.599886H610.502547l-334.847752 167.423876a51.199962 51.199962 0 0 1-74.039945-45.795966V851.199368H153.599886A153.599886 153.599886 0 0 1 0 697.599482v-543.999596A153.599886 153.599886 0 0 1 153.599886 0h300.799777a51.199962 51.199962 0 0 1 0 102.399924H153.599886zM771.213428 0a51.199962 51.199962 0 0 1 51.199962 51.199962v121.59991h121.599909a51.199962 51.199962 0 0 1 0 102.399924h-121.599909v121.59991a51.199962 51.199962 0 1 1-102.399924 0V275.199796h-121.59991a51.199962 51.199962 0 0 1 0-102.399924h121.57191V51.199962a51.199962 51.199962 0 0 1 51.199962-51.199962h0.028z" p-id="5574" fill="#707070"></path></svg>