<?xml version="1.0" standalone="no"?><!DOCTYPE svg PUBLIC "-//W3C//DTD SVG 1.1//EN" "http://www.w3.org/Graphics/SVG/1.1/DTD/svg11.dtd"><svg t="1723703182973" class="icon" viewBox="0 0 1024 1024" version="1.1" xmlns="http://www.w3.org/2000/svg" p-id="30378" xmlns:xlink="http://www.w3.org/1999/xlink" width="24" height="24"><path d="M512 9.309091c273.128727 0 495.429818 217.832727 502.504727 489.285818l0.186182 14.149818c0 83.642182-17.314909 152.436364-52.782545 205.637818a37.236364 37.236364 0 0 1-61.998546-41.332363c24.669091-36.957091 38.260364-86.621091 40.075637-149.550546L940.218182 512a428.218182 428.218182 0 0 0-856.250182-12.427636L83.781818 512v232.727273a195.490909 195.490909 0 0 0 185.716364 195.258182L279.272727 940.218182h231.610182c59.019636 0 118.085818-7.912727 177.338182-23.738182a37.236364 37.236364 0 0 1 19.223273 71.912727 761.949091 761.949091 0 0 1-171.985455 25.879273l-24.576 0.418909H279.272727a269.963636 269.963636 0 0 1-269.777454-259.630545L9.309091 744.727273v-232.727273C9.309091 234.356364 234.356364 9.309091 512 9.309091z m50.269091 515.258182a37.236364 37.236364 0 0 1 4.654545 74.193454l-4.654545 0.279273H286.301091a37.236364 37.236364 0 0 1-4.654546-74.146909l4.654546-0.279273h275.874909z m139.636364-186.181818a37.236364 37.236364 0 0 1 4.654545 74.193454l-4.654545 0.279273H286.301091a37.236364 37.236364 0 0 1-4.654546-74.146909l4.654546-0.279273h415.511273z" fill="#2c2c2c" p-id="30379"></path><path d="M847.872 734.487273c21.410909 0 38.772364 17.361455 38.772364 38.772363v38.772364h38.772363a38.772364 38.772364 0 1 1 0 77.591273h-38.772363v38.818909a38.772364 38.772364 0 0 1-77.591273 0v-38.818909h-38.772364a38.772364 38.772364 0 1 1 0-77.544728l38.772364-0.046545v-38.772364c0-21.410909 17.361455-38.772364 38.818909-38.772363z" fill="#2c2c2c" p-id="30380"></path></svg>